<?xml version="1.0" encoding="utf-8"?>
<!-- Generator: Adobe Illustrator 24.2.3, SVG Export Plug-In . SVG Version: 6.00 Build 0)  -->
<svg version="1.1" id="Layer_1" xmlns="http://www.w3.org/2000/svg" xmlns:xlink="http://www.w3.org/1999/xlink" x="0px" y="0px"
	 viewBox="0 0 540.05 61" style="enable-background:new 0 0 540.05 61;" xml:space="preserve">
<g>
	<path d="M0,61v-1c0.5,0,0.99-0.01,1.49-0.02l0.02,1C1.01,60.99,0.51,61,0,61z"/>
	<path d="M268.69,61l-0.5,0l0.01-1l0.48,0c0.8,0,1.63-0.03,2.47-0.09l0.07,1C270.36,60.97,269.51,61,268.69,61z M535.5,60.85
		c-1.01-0.06-2.01-0.15-3.01-0.26l0.11-0.99c0.98,0.1,1.97,0.19,2.97,0.25L535.5,60.85z M4.53,60.83l-0.07-1
		c0.98-0.07,1.97-0.17,2.95-0.29l0.12,0.99C6.54,60.66,5.52,60.76,4.53,60.83z M265.15,60.83c-0.97-0.09-1.98-0.22-3-0.39l0.16-0.99
		c1,0.16,1.98,0.29,2.94,0.38L265.15,60.83z M274.24,60.59l-0.14-0.99c0.95-0.14,1.94-0.31,2.92-0.51l0.2,0.98
		C276.21,60.27,275.21,60.45,274.24,60.59z M529.5,60.21c-1-0.15-1.99-0.32-2.97-0.5l0.19-0.98c0.97,0.18,1.95,0.35,2.93,0.5
		L529.5,60.21z M10.52,60.08l-0.17-0.98c0.97-0.17,1.95-0.37,2.91-0.59l0.22,0.97C12.5,59.71,11.5,59.91,10.52,60.08z M259.18,59.86
		c-0.95-0.21-1.94-0.46-2.93-0.73l0.27-0.96c0.98,0.27,1.95,0.51,2.89,0.72L259.18,59.86z M280.16,59.36l-0.26-0.97
		c0.93-0.25,1.89-0.53,2.86-0.84l0.3,0.95C282.08,58.83,281.11,59.11,280.16,59.36z M523.58,59.09c-0.98-0.22-1.95-0.47-2.92-0.73
		l0.26-0.97c0.96,0.26,1.92,0.5,2.88,0.72L523.58,59.09z M16.4,58.74l-0.27-0.96c0.95-0.26,1.91-0.56,2.85-0.87l0.31,0.95
		C18.34,58.17,17.36,58.47,16.4,58.74z M253.35,58.26c-0.94-0.3-1.9-0.63-2.86-0.97l0.34-0.94c0.95,0.34,1.89,0.66,2.82,0.96
		L253.35,58.26z M285.92,57.54l-0.34-0.94c0.92-0.34,1.85-0.69,2.78-1.07l0.38,0.93C287.79,56.84,286.85,57.2,285.92,57.54z
		 M517.76,57.53c-0.96-0.29-1.92-0.61-2.87-0.93l0.32-0.95c0.94,0.32,1.89,0.63,2.83,0.92L517.76,57.53z M22.14,56.85l-0.35-0.93
		c0.93-0.35,1.84-0.72,2.76-1.11l0.39,0.92C24.01,56.12,23.08,56.49,22.14,56.85z M247.67,56.22c-0.92-0.36-1.85-0.75-2.79-1.15
		l0.39-0.92c0.93,0.4,1.85,0.77,2.76,1.14L247.67,56.22z M512.06,55.57c-0.94-0.36-1.88-0.73-2.81-1.11l0.38-0.92
		c0.92,0.38,1.85,0.75,2.78,1.1L512.06,55.57z M291.51,55.28l-0.4-0.92c0.9-0.4,1.81-0.81,2.72-1.24l0.43,0.9
		C293.34,54.46,292.42,54.88,291.51,55.28z M27.68,54.49l-0.43-0.9c0.9-0.42,1.79-0.87,2.67-1.32l0.46,0.89
		C29.49,53.61,28.59,54.06,27.68,54.49z M242.13,53.87c-0.9-0.41-1.81-0.83-2.73-1.27l0.43-0.9c0.91,0.43,1.81,0.85,2.71,1.26
		L242.13,53.87z M506.48,53.27c-0.92-0.41-1.83-0.83-2.75-1.26l0.43-0.9c0.9,0.43,1.81,0.85,2.72,1.25L506.48,53.27z M296.96,52.7
		l-0.45-0.89c0.88-0.44,1.77-0.9,2.66-1.37l0.46,0.88C298.74,51.8,297.85,52.26,296.96,52.7z M33.04,51.72l-0.49-0.87
		c0.87-0.48,1.73-0.98,2.59-1.49l0.51,0.86C34.78,50.73,33.91,51.24,33.04,51.72z M236.69,51.27c-0.89-0.44-1.78-0.9-2.68-1.36
		l0.46-0.89c0.89,0.46,1.78,0.92,2.67,1.36L236.69,51.27z M501.02,50.68c-0.89-0.45-1.79-0.91-2.67-1.38l0.47-0.88
		c0.88,0.47,1.77,0.93,2.65,1.37L501.02,50.68z M302.29,49.9l-0.48-0.88c0.87-0.48,1.74-0.96,2.61-1.46l0.49,0.87
		C304.04,48.94,303.16,49.43,302.29,49.9z M38.22,48.65l-0.53-0.85c0.84-0.53,1.68-1.07,2.51-1.62l0.55,0.83
		C39.91,47.57,39.06,48.11,38.22,48.65z M231.35,48.51c-0.88-0.47-1.76-0.95-2.64-1.43l0.48-0.88c0.88,0.48,1.76,0.96,2.63,1.43
		L231.35,48.51z M495.7,47.86c-0.88-0.49-1.75-0.99-2.62-1.49l0.5-0.87c0.87,0.5,1.74,1,2.61,1.48L495.7,47.86z M307.53,46.94
		l-0.5-0.86c0.86-0.5,1.72-1.01,2.58-1.52l0.51,0.86C309.25,45.93,308.39,46.44,307.53,46.94z M226.07,45.61
		c-0.87-0.49-1.74-0.98-2.61-1.49l0.5-0.87c0.87,0.5,1.74,1,2.61,1.48L226.07,45.61z M43.24,45.33l-0.57-0.82
		c0.82-0.56,1.64-1.13,2.45-1.71l0.58,0.82C44.89,44.19,44.06,44.77,43.24,45.33z M490.47,44.84c-0.86-0.52-1.72-1.04-2.57-1.57
		l0.53-0.85c0.85,0.53,1.71,1.05,2.56,1.56L490.47,44.84z M312.69,43.85L312.17,43c0.85-0.52,1.7-1.04,2.55-1.57l0.53,0.85
		C314.39,42.81,313.54,43.33,312.69,43.85z M220.86,42.62c-0.86-0.5-1.72-1.01-2.59-1.53l0.51-0.86c0.86,0.51,1.73,1.02,2.58,1.52
		L220.86,42.62z M48.15,41.85l-0.59-0.81c0.8-0.59,1.61-1.18,2.41-1.78l0.6,0.8C49.76,40.67,48.95,41.27,48.15,41.85z M485.35,41.66
		c-0.85-0.54-1.69-1.08-2.53-1.63l0.55-0.84c0.84,0.55,1.68,1.09,2.52,1.63L485.35,41.66z M317.8,40.69l-0.53-0.85
		c0.84-0.53,1.69-1.06,2.54-1.6l0.54,0.84C319.49,39.62,318.64,40.16,317.8,40.69z M215.69,39.55c-0.86-0.51-1.71-1.03-2.57-1.55
		l0.52-0.85c0.86,0.52,1.71,1.04,2.57,1.55L215.69,39.55z M480.3,38.37c-0.84-0.56-1.67-1.11-2.5-1.68l0.56-0.83
		c0.83,0.56,1.66,1.12,2.49,1.67L480.3,38.37z M52.97,38.27l-0.6-0.8c0.79-0.6,1.59-1.21,2.39-1.82l0.61,0.79
		C54.56,37.06,53.76,37.66,52.97,38.27z M322.87,37.47l-0.54-0.84l2.53-1.62l0.54,0.84L322.87,37.47z M210.55,36.44l-2.56-1.57
		l0.52-0.85l2.56,1.57L210.55,36.44z M475.32,35.01c-0.83-0.57-1.65-1.13-2.47-1.7l0.57-0.82c0.82,0.57,1.64,1.13,2.47,1.7
		L475.32,35.01z M57.74,34.62l-0.61-0.79L59.51,32l0.61,0.79L57.74,34.62z M327.93,34.23l-0.54-0.84l2.53-1.62l0.54,0.84
		L327.93,34.23z M205.44,33.29l-2.56-1.58l0.53-0.85l2.56,1.58L205.44,33.29z M470.38,31.59l-2.46-1.71l0.57-0.82l2.46,1.71
		L470.38,31.59z M332.97,30.99l-0.54-0.84l2.53-1.61l0.54,0.84L332.97,30.99z M62.5,30.97l-0.61-0.79c0.79-0.61,1.59-1.21,2.39-1.82
		l0.6,0.8C64.08,29.75,63.29,30.36,62.5,30.97z M200.31,30.13l-2.56-1.58l0.53-0.85l2.56,1.58L200.31,30.13z M465.47,28.17
		l-2.45-1.71l0.57-0.82l2.46,1.71L465.47,28.17z M338.03,27.77l-0.54-0.85c0.85-0.53,1.7-1.07,2.54-1.6l0.53,0.85
		C339.72,26.7,338.87,27.24,338.03,27.77z M67.28,27.35l-0.6-0.8c0.8-0.6,1.6-1.2,2.41-1.79l0.59,0.81
		C68.88,26.15,68.07,26.75,67.28,27.35z M195.21,26.98l-2.55-1.56l0.52-0.85l2.55,1.57L195.21,26.98z M460.55,24.75
		c-0.82-0.57-1.65-1.14-2.47-1.7l0.56-0.83c0.82,0.56,1.65,1.13,2.48,1.7L460.55,24.75z M343.12,24.59l-0.53-0.85
		c0.85-0.53,1.71-1.05,2.57-1.58l0.52,0.85C344.82,23.53,343.97,24.06,343.12,24.59z M190.09,23.85c-0.86-0.52-1.71-1.04-2.57-1.55
		l0.51-0.86c0.86,0.51,1.71,1.03,2.57,1.55L190.09,23.85z M72.11,23.8l-0.58-0.81c0.81-0.58,1.63-1.16,2.45-1.74l0.57,0.82
		C73.73,22.65,72.92,23.22,72.11,23.8z M348.25,21.46l-0.51-0.86c0.86-0.52,1.72-1.03,2.59-1.53l0.51,0.86
		C349.97,20.43,349.11,20.94,348.25,21.46z M455.6,21.37c-0.83-0.56-1.66-1.11-2.49-1.66l0.55-0.83c0.83,0.55,1.67,1.11,2.5,1.67
		L455.6,21.37z M184.95,20.76c-0.86-0.51-1.73-1.02-2.58-1.52l0.5-0.86c0.86,0.5,1.72,1.01,2.59,1.53L184.95,20.76z M77.02,20.38
		l-0.56-0.83c0.83-0.56,1.66-1.11,2.51-1.66l0.55,0.84C78.67,19.27,77.84,19.83,77.02,20.38z M353.42,18.42l-0.5-0.87
		c0.87-0.5,1.75-0.99,2.62-1.48l0.49,0.87C355.16,17.43,354.29,17.93,353.42,18.42z M450.6,18.06c-0.84-0.54-1.68-1.08-2.53-1.61
		l0.53-0.85c0.85,0.53,1.69,1.07,2.54,1.62L450.6,18.06z M179.77,17.74c-0.87-0.5-1.74-0.99-2.61-1.48l0.49-0.87
		c0.87,0.49,1.74,0.98,2.61,1.49L179.77,17.74z M82.03,17.12l-0.53-0.85c0.85-0.53,1.7-1.05,2.57-1.57l0.51,0.86
		C83.72,16.07,82.87,16.59,82.03,17.12z M358.65,15.5l-0.48-0.88c0.88-0.48,1.77-0.95,2.65-1.42l0.46,0.89
		C360.41,14.56,359.53,15.03,358.65,15.5z M445.53,14.88c-0.86-0.52-1.71-1.03-2.57-1.53l0.5-0.86c0.86,0.5,1.72,1.02,2.58,1.54
		L445.53,14.88z M174.54,14.8c-0.88-0.48-1.76-0.96-2.63-1.43l0.47-0.88c0.88,0.47,1.76,0.95,2.64,1.43L174.54,14.8z M87.16,14.06
		l-0.49-0.87c0.87-0.49,1.75-0.98,2.64-1.45l0.47,0.88C88.9,13.09,88.03,13.57,87.16,14.06z M363.96,12.73l-0.45-0.89
		c0.9-0.45,1.8-0.9,2.7-1.33l0.44,0.9C365.75,11.83,364.85,12.28,363.96,12.73z M169.26,11.98c-0.89-0.46-1.78-0.92-2.67-1.36
		l0.45-0.9c0.89,0.44,1.78,0.9,2.68,1.36L169.26,11.98z M440.36,11.86c-0.87-0.49-1.75-0.97-2.62-1.43l0.47-0.88
		c0.88,0.47,1.76,0.95,2.64,1.44L440.36,11.86z M92.43,11.25l-0.45-0.89c0.89-0.45,1.8-0.89,2.71-1.31l0.42,0.91
		C94.21,10.37,93.32,10.8,92.43,11.25z M369.34,10.12l-0.42-0.91c0.92-0.42,1.83-0.83,2.75-1.23l0.4,0.92
		C371.16,9.3,370.25,9.71,369.34,10.12z M163.9,9.31c-0.91-0.43-1.81-0.85-2.71-1.26l0.41-0.91c0.9,0.41,1.82,0.83,2.73,1.27
		L163.9,9.31z M435.08,9.07c-0.89-0.45-1.79-0.88-2.69-1.3l0.42-0.91c0.91,0.42,1.81,0.86,2.71,1.31L435.08,9.07z M97.83,8.72
		l-0.4-0.92c0.92-0.4,1.84-0.78,2.78-1.16l0.37,0.93C99.66,7.94,98.74,8.33,97.83,8.72z M374.83,7.74l-0.38-0.93
		c0.93-0.38,1.87-0.75,2.8-1.11l0.36,0.93C376.68,6.99,375.75,7.36,374.83,7.74z M158.45,6.84c-0.93-0.4-1.85-0.77-2.77-1.13
		l0.37-0.93c0.92,0.36,1.85,0.75,2.79,1.14L158.45,6.84z M429.67,6.55c-0.92-0.39-1.84-0.77-2.76-1.12l0.36-0.93
		c0.93,0.36,1.86,0.74,2.79,1.14L429.67,6.55z M103.37,6.51l-0.34-0.94c0.94-0.34,1.89-0.67,2.85-0.98l0.31,0.95
		C105.24,5.85,104.3,6.17,103.37,6.51z M380.41,5.62l-0.33-0.94c0.95-0.33,1.91-0.65,2.86-0.95l0.3,0.95
		C382.3,4.97,381.36,5.29,380.41,5.62z M109.04,4.66l-0.28-0.96c0.96-0.28,1.93-0.55,2.91-0.8l0.25,0.97
		C110.94,4.12,109.99,4.38,109.04,4.66z M152.89,4.65c-0.95-0.34-1.89-0.66-2.82-0.96l0.3-0.95c0.94,0.3,1.9,0.63,2.86,0.97
		L152.89,4.65z M424.11,4.41c-0.94-0.32-1.89-0.63-2.83-0.91l0.29-0.96c0.96,0.29,1.92,0.59,2.87,0.92L424.11,4.41z M386.1,3.82
		l-0.27-0.96c0.97-0.27,1.94-0.53,2.92-0.77l0.24,0.97C388.02,3.29,387.06,3.55,386.1,3.82z M114.81,3.17l-0.22-0.98
		c0.97-0.22,1.96-0.42,2.95-0.6l0.18,0.98C116.75,2.76,115.77,2.96,114.81,3.17z M147.21,2.84c-0.99-0.27-1.96-0.51-2.89-0.72
		l0.22-0.98c0.95,0.21,1.93,0.46,2.93,0.73L147.21,2.84z M418.4,2.71c-0.97-0.24-1.95-0.46-2.9-0.65l0.2-0.98
		c0.97,0.19,1.96,0.41,2.95,0.66L418.4,2.71z M391.89,2.4l-0.2-0.98c0.99-0.2,1.98-0.39,2.97-0.55l0.16,0.99
		C393.84,2.02,392.87,2.2,391.89,2.4z M120.67,2.08l-0.15-0.99c0.98-0.15,1.98-0.29,2.99-0.41l0.12,0.99
		C122.62,1.79,121.64,1.93,120.67,2.08z M412.57,1.56c-0.98-0.14-1.97-0.26-2.94-0.35l0.09-1c0.99,0.09,2,0.21,3,0.35L412.57,1.56z
		 M141.41,1.55c-1-0.16-1.98-0.29-2.94-0.38l0.09-1c0.98,0.09,1.99,0.23,3.01,0.39L141.41,1.55z M397.76,1.44l-0.12-0.99
		c1-0.12,2.01-0.22,3.01-0.29l0.07,1C399.75,1.23,398.75,1.32,397.76,1.44z M126.58,1.36l-0.09-1c0.99-0.09,1.99-0.16,3.01-0.22
		l0.06,1C128.56,1.21,127.56,1.28,126.58,1.36z M132.54,1.03l-0.03-1c0.83-0.02,1.66-0.03,2.5-0.03l0.52,0l-0.01,1l-0.5,0
		C134.18,1,133.36,1.01,132.54,1.03z M406.67,1.03c-0.99-0.03-1.98-0.04-2.97-0.01l-0.02-1c1.01-0.02,2.02-0.02,3.03,0.01
		L406.67,1.03z"/>
	<path d="M540.05,61c-0.51,0-1.01-0.01-1.51-0.02l0.02-1c0.49,0.01,0.99,0.02,1.49,0.02V61z"/>
</g>
</svg>
