<?xml version="1.0" encoding="utf-8"?>
<!-- Generator: Adobe Illustrator 24.2.3, SVG Export Plug-In . SVG Version: 6.00 Build 0)  -->
<svg version="1.1" id="Layer_1" xmlns="http://www.w3.org/2000/svg" xmlns:xlink="http://www.w3.org/1999/xlink" x="0px" y="0px"
	 viewBox="0 0 528 522" style="enable-background:new 0 0 528 522;" xml:space="preserve">
<style type="text/css">
	.st0{fill-rule:evenodd;clip-rule:evenodd;fill:#2E2526;}
	.st1{fill:#2E2526;}
	.st2{font-family:'Montserrat-Light';}
	.st3{font-size:72.8384px;}
</style>
<g id="FONDO">
</g>
<g id="LOGO">
	<g>
		<g>
			<path class="st0" d="M191.6,188c1.9-4.4,3.8-9.3,5.8-14.6s4.1-10.9,6.1-16.6c2-5.8,4-11.6,5.8-17.6c1.9-6,3.5-12,4.8-17.9
				c1.7-7.1,2.8-13,3.3-17.8c0.5-4.7,0.7-8.7,0.6-11.8c-0.1-3.1-0.4-5.5-0.9-7.1c-0.5-1.6-1-2.8-1.5-3.4c-0.9-1.2-2.1-1.9-3.8-2
				c-0.7,0.5-1.9,2.2-3.7,5.2c-1.8,3-3.9,8.6-6.5,16.9c-1.9,6.8-3.7,14.6-5.6,23.5s-3.6,18.6-5.1,29.1c-1.2,8-2.2,15.9-3.1,23.9
				c-0.9,7.9-1.6,16-2.3,24.1c1-2.4,2-4.6,3-6.9C189.8,192.6,190.8,190.4,191.6,188z"/>
			<path class="st0" d="M452.9,233.6c3-19.9,25.7-39.4,20.7-60.2c-4.8-20.1-29.2-35.2-39.2-52.7c-3.8-6.6-12.5-53.8-23.3-45.6
				c-6,4.6-116.7,82.3-116.7,82.3s-8.9-82.5-6.7-124.5c1.3-23.5-14.6-23.5-32.6-17.3c-9.3,3.2-18.3,7.4-28,9.5
				c-12.9,2.8-24.2-3.6-37.4-3.9c-8-0.2-14.9,1.2-22.3,4.7c-6.6,3-12.6,8.9-17.3,15.3c-6.3,8.8-11.6,22.8-16.5,32.6
				c-2.9,5.7-17.1,11.3-22.2,14.8c-9.2,6.4-18.2,13.3-24.2,22.9c-12.6,20.3-7.1,45.5-9.3,68c-2.3,23.2-28.9,45.6-22.4,68.7
				c6.4,22.6,34.7,28.1,43.6,48.9c3.5,8.1,4.4,18.4,5.7,27c2.7,17.2,6.4,31.2,22.4,40.5c14.9,8.7,32.4,11.6,47.7,19.4
				c19.2,9.9,28.3,33.3,48.6,40.9c24.3,9.2,44.2-3.8,65-15.1c22.8-12.4,50.6,9.7,74.1-1.8c22.4-11,22.2-35.6,35.8-53.2
				c18.4-23.7,55-36.5,59.9-69.2C461.2,267,450.2,252.2,452.9,233.6z M329.9,330.2c-4-1-7.8-3.4-11.2-7.2c-1.2-1.4-2.3-3.2-3.4-5.5
				c-1.1-2.3-2.1-5.5-3-9.5c-0.9-4.1-1.6-9.2-1.9-15.5c-0.3-6.2-0.3-14,0-23.3c-11.5,20.6-24.5,31-39.1,31
				c-10.1,0-18.3-3.7-24.4-11.2c-3.4-4.4-6-10-7.7-16.8c-0.5,1.4-1,2.8-1.4,4.1c-3.1,8.6-6.1,16.3-9,23.1c-3,6.8-5.9,12.6-8.8,17.5
				c-3.9,6.3-7.5,11.1-10.9,14.5c-4.7,4.7-9.7,7.1-15,7.1c-2.2,0-4.7-0.6-7.4-1.9c-2.7-1.3-5.2-3.9-7.6-7.7
				c-1.4-2.2-2.5-4.8-3.6-7.9s-1.9-6.6-2.8-10.6c-3.1-13.7-4.6-32.3-4.6-55.8c0-2,0-4.1,0.1-6.2c0-0.6,0-1.3,0.1-1.9
				c-4.1,4.8-8.2,9.6-13.2,13.5c-5.6,4.4-12.7,6.7-19.7,5c-3.7-0.9-10.8-4.3-3.7-7.1c1.7-0.7,3.5-1.1,5.1-1.9
				c14.1-6.9,23.6-20.6,32.2-33.4c0.7-12.7,1.7-25.6,3-38.8c1.8-18,4.1-34.9,7-50.6c1.7-9.6,3.5-18.4,5.5-26.1
				c1.9-7.8,3.9-14.5,6-20c1-2.5,2.1-5.1,3.4-7.7c1.3-2.6,2.7-5.1,4.3-7.4c1.6-2.3,3.5-4.1,5.6-5.6c2.1-1.4,4.5-2.2,7.2-2.2
				c7.4,0,13.1,3,17,8.9c6.6,9.6,6.9,26.9,0.8,51.8c-1.4,6.1-3,12.3-4.9,18.7c-1.9,6.3-3.9,12.5-6,18.5c-2,6-4.1,11.7-6.2,17.1
				c-2.1,5.4-4.1,10.4-6,15c-3.7,8.6-7.4,16.8-11,24.6c-3.6,7.8-7.3,15.1-11,21.8c-0.2,7.1-0.2,13.8-0.1,20.2
				c0.1,6.4,0.3,12.4,0.6,18.1c0.5,9.6,1.3,17.4,2.4,23.2c1.1,5.8,2.2,10.3,3.2,13.4c1,3.1,1.9,5.2,2.8,6.2c0.9,1,1.4,1.6,1.5,1.8
				c0.2,0,0.6-0.1,1.3-0.4c0.7-0.3,1.5-0.9,2.5-1.8c1-0.9,2.3-2.3,3.8-4.2c1.5-1.9,3.2-4.5,5.1-7.9c2.7-4.4,5.5-9.8,8.2-16.2
				s5.6-13.7,8.5-21.8c2.5-6.9,4.8-13.8,6.9-20.6s3.8-12.8,5.2-18c1.4-5.2,3-11.2,4.7-17.8c0.5-2,1.7-3.6,3.6-4.7
				c1.3-0.8,2.6-1.1,4-1.1c0.6,0,1.2,0.1,1.9,0.2c2,0.4,3.6,1.4,4.7,3.2c1.1,1.8,1.5,3.8,1.1,6c-0.5,2.4-1,4.9-1.5,7.6
				c-0.3,2.4-0.7,5.1-1,8.1c-0.3,3.1-0.6,6.3-0.8,9.6c-0.5,8.3-0.2,15.5,1,21.7c1.2,6.2,3,10.9,5.6,14.1c3,3.7,7.2,5.6,12.4,5.6
				c5.8,0,11.5-3.4,17.1-10.1c5.7-6.8,11-16.5,16.1-29.2c2-5.2,3.9-10.4,5.5-15.6c1.6-5.1,2.9-9.7,3.9-13.7c1-4,2.1-8.5,3.3-13.6
				c0.3-2,1.4-3.6,3-4.8c1.7-1.2,3.5-1.6,5.6-1.3c2,0.3,3.7,1.4,5,3.2c1.3,1.8,1.7,3.7,1.4,5.7c-1,6.1-1.9,11.6-2.5,16.5
				c-0.7,4.9-1.3,10.5-1.9,16.8s-1.1,12.8-1.6,19.5c-0.9,11.5-1.1,20.8-0.8,27.9c0.3,6.7,0.4,13.4,1.9,20c1.4,5.8,4,7.6,9.9,6.3
				c6.9-1.5,12.9-5.8,17.6-11c7.9-8.6,14.4-28.8,16.8-40.3c2.8-13.3,2.1-27.2-0.8-41.2c-2.3-11.2,11.9-8.4,17.6-3.9
				C425.1,245.1,366.5,339.6,329.9,330.2z"/>
		</g>
		<g>
			<text transform="matrix(1 0 0 1 6.909 501.1074)" class="st1 st2 st3">postres+tortas</text>
		</g>
	</g>
</g>
</svg>
