<?xml version="1.0" encoding="utf-8"?>
<!-- Generator: Adobe Illustrator 24.2.3, SVG Export Plug-In . SVG Version: 6.00 Build 0)  -->
<svg version="1.1" xmlns="http://www.w3.org/2000/svg" xmlns:xlink="http://www.w3.org/1999/xlink" x="0px" y="0px"
	 viewBox="0 0 510.49 530" style="enable-background:new 0 0 510.49 530;" xml:space="preserve">
<style type="text/css">
	.st0{display:none;}
	.st1{fill-rule:evenodd;clip-rule:evenodd;fill:#B3ABD1;}
	.st2{fill:#B3ABD1;}
	.st3{font-family:'Montserrat-ExtraLight';}
	.st4{font-size:72.8384px;}
</style>
<g id="FONDO" class="st0">
</g>
<g id="LOGO">
	<g>
		<path class="st1" d="M181.61,189.44c1.86-4.4,3.81-9.26,5.84-14.59c2.03-5.33,4.06-10.86,6.09-16.62
			c2.03-5.75,3.97-11.62,5.83-17.64c1.86-6,3.47-11.96,4.82-17.88c1.69-7.11,2.8-13.03,3.3-17.77c0.51-4.73,0.72-8.66,0.64-11.8
			c-0.08-3.12-0.38-5.5-0.89-7.11c-0.5-1.6-1.01-2.75-1.52-3.42c-0.85-1.18-2.12-1.86-3.8-2.03c-0.68,0.5-1.91,2.24-3.68,5.2
			c-1.78,2.96-3.94,8.59-6.47,16.88c-1.86,6.77-3.72,14.59-5.58,23.47c-1.86,8.88-3.55,18.57-5.07,29.05
			c-1.19,7.96-2.2,15.9-3.05,23.86c-0.85,7.95-1.61,15.98-2.28,24.1c1.01-2.36,2.03-4.65,3.04-6.85
			C179.83,194.09,180.76,191.81,181.61,189.44z"/>
		<path class="st1" d="M442.94,235.07c2.96-19.93,25.7-39.45,20.71-60.25c-4.81-20.06-29.22-35.21-39.25-52.66
			c-3.79-6.59-12.5-53.85-23.28-45.61c-6.02,4.6-116.7,82.29-116.7,82.29s-8.94-82.46-6.69-124.5
			c1.26-23.51-14.64-23.48-32.57-17.27c-9.26,3.21-18.34,7.4-27.96,9.46c-12.93,2.76-24.24-3.64-37.35-3.9
			c-7.98-0.16-14.92,1.25-22.31,4.67c-6.57,3.04-12.64,8.87-17.32,15.35c-6.34,8.76-11.64,22.83-16.53,32.57
			c-2.86,5.7-17.08,11.29-22.2,14.84c-9.18,6.38-18.25,13.32-24.24,22.95c-12.61,20.27-7.09,45.45-9.28,67.95
			c-2.26,23.17-28.89,45.63-22.39,68.68c6.39,22.65,34.65,28.1,43.61,48.9c3.49,8.08,4.37,18.39,5.7,27.03
			c2.66,17.21,6.44,31.2,22.42,40.52c14.94,8.73,32.44,11.59,47.74,19.44c19.23,9.87,28.33,33.28,48.57,40.91
			c24.33,9.16,44.22-3.79,64.97-15.09c22.75-12.4,50.62,9.74,74.13-1.84c22.41-11.04,22.18-35.62,35.81-53.21
			c18.4-23.73,54.95-36.5,59.91-69.2C451.25,268.47,440.17,253.67,442.94,235.07z M319.93,331.64c-4.05-1.05-7.84-3.38-11.2-7.21
			c-1.19-1.36-2.33-3.18-3.42-5.46c-1.1-2.29-2.12-5.45-3.05-9.52c-0.93-4.06-1.57-9.22-1.9-15.48c-0.34-6.25-0.34-14.04,0-23.34
			c-11.51,20.64-24.53,30.95-39.07,30.95c-10.15,0-18.27-3.72-24.36-11.16c-3.45-4.44-6-10.05-7.68-16.82
			c-0.47,1.38-0.96,2.75-1.45,4.13c-3.05,8.62-6.05,16.32-9.01,23.09c-2.97,6.76-5.88,12.6-8.75,17.51
			c-3.9,6.26-7.53,11.08-10.91,14.46c-4.74,4.73-9.73,7.1-14.97,7.1c-2.2,0-4.66-0.63-7.36-1.9c-2.71-1.27-5.25-3.85-7.61-7.73
			c-1.35-2.2-2.53-4.82-3.55-7.87c-1.02-3.05-1.95-6.6-2.79-10.65c-3.05-13.7-4.57-32.31-4.57-55.82c0-2.03,0.04-4.1,0.13-6.22
			c0.02-0.64,0.04-1.28,0.06-1.92c-4.08,4.8-8.17,9.58-13.19,13.5c-5.58,4.36-12.72,6.74-19.73,4.98
			c-3.72-0.94-10.76-4.34-3.67-7.09c1.71-0.66,3.49-1.12,5.14-1.93c14.12-6.94,23.56-20.58,32.18-33.39
			c0.71-12.7,1.72-25.65,3.02-38.85c1.78-18.01,4.1-34.89,6.98-50.62c1.69-9.64,3.51-18.36,5.46-26.13
			c1.94-7.78,3.93-14.47,5.96-20.04c1.01-2.54,2.15-5.12,3.42-7.74c1.27-2.62,2.7-5.07,4.31-7.36c1.6-2.28,3.47-4.14,5.58-5.58
			c2.11-1.43,4.52-2.16,7.23-2.16c7.44,0,13.11,2.96,17,8.88c6.59,9.64,6.85,26.89,0.76,51.76c-1.36,6.09-3.01,12.31-4.95,18.65
			c-1.95,6.34-3.93,12.52-5.97,18.52c-2.03,6-4.1,11.72-6.22,17.12c-2.11,5.42-4.09,10.41-5.96,14.97
			c-3.72,8.62-7.4,16.83-11.03,24.61c-3.64,7.78-7.32,15.06-11.04,21.82c-0.17,7.1-0.21,13.83-0.13,20.17
			c0.08,6.35,0.3,12.39,0.64,18.14c0.51,9.64,1.31,17.38,2.41,23.22c1.1,5.83,2.16,10.32,3.17,13.44c1.02,3.13,1.94,5.21,2.79,6.22
			c0.85,1.01,1.35,1.61,1.52,1.78c0.16,0,0.59-0.13,1.27-0.38c0.67-0.26,1.52-0.85,2.53-1.78c1.02-0.93,2.28-2.32,3.81-4.18
			c1.52-1.86,3.21-4.49,5.08-7.87c2.7-4.4,5.46-9.81,8.25-16.24c2.79-6.43,5.62-13.7,8.5-21.82c2.54-6.94,4.82-13.78,6.85-20.55
			c2.03-6.77,3.76-12.77,5.2-18.01c1.44-5.25,3-11.16,4.69-17.76c0.51-2.03,1.69-3.59,3.55-4.7c1.29-0.75,2.6-1.13,3.96-1.13
			c0.61,0,1.24,0.08,1.88,0.24c2.03,0.35,3.59,1.4,4.7,3.18c1.1,1.77,1.47,3.76,1.14,5.96c-0.51,2.37-1.02,4.91-1.52,7.61
			c-0.34,2.37-0.68,5.07-1.02,8.12c-0.34,3.05-0.59,6.26-0.76,9.64c-0.5,8.29-0.17,15.52,1.02,21.69
			c1.18,6.18,3.04,10.87,5.58,14.08c3.04,3.72,7.19,5.58,12.43,5.58c5.75,0,11.46-3.38,17.12-10.15
			c5.67-6.76,11.04-16.49,16.11-29.18c2.03-5.24,3.85-10.44,5.46-15.61c1.6-5.15,2.91-9.72,3.93-13.7c1.02-3.97,2.11-8.5,3.3-13.57
			c0.34-2.03,1.35-3.64,3.04-4.83c1.7-1.18,3.55-1.6,5.58-1.27c2.03,0.34,3.68,1.4,4.95,3.17c1.27,1.78,1.74,3.68,1.4,5.71
			c-1.02,6.09-1.86,11.58-2.54,16.49c-0.68,4.91-1.31,10.49-1.9,16.75c-0.59,6.26-1.14,12.77-1.65,19.53
			c-0.85,11.51-1.1,20.81-0.76,27.92c0.32,6.74,0.35,13.41,1.94,20.02c1.38,5.75,4.05,7.65,9.92,6.33
			c6.93-1.54,12.88-5.82,17.62-10.98c7.88-8.58,14.41-28.84,16.84-40.31c2.82-13.31,2.08-27.16-0.75-41.19
			c-2.26-11.19,11.9-8.39,17.64-3.85C415.07,246.56,356.49,341.06,319.93,331.64z"/>
	</g>
	<g>
		<text transform="matrix(1 0 0 1 0 504.5615)" class="st2 st3 st4">postres+tortas</text>
	</g>
</g>
</svg>
